<svg width="234" height="88" viewBox="0 0 234 88" fill="none" xmlns="http://www.w3.org/2000/svg">
<path d="M94.328 9.368C96.656 9.368 98.684 9.824 100.412 10.736C102.14 11.648 103.484 12.992 104.444 14.768C105.404 16.544 105.884 18.692 105.884 21.212V35H100.052V28.952H88.532V35H82.772V21.212C82.772 18.692 83.252 16.544 84.212 14.768C85.172 12.992 86.516 11.648 88.244 10.736C89.972 9.824 92 9.368 94.328 9.368ZM100.052 24.272V20.672C100.052 18.584 99.536 17.012 98.504 15.956C97.472 14.876 96.068 14.336 94.292 14.336C92.492 14.336 91.076 14.876 90.044 15.956C89.036 17.012 88.532 18.584 88.532 20.672V24.272H100.052ZM117.76 35.288C116.152 35.288 114.58 35.096 113.044 34.712C111.508 34.304 110.284 33.8 109.372 33.2L111.244 29.168C112.108 29.72 113.152 30.176 114.376 30.536C115.6 30.872 116.8 31.04 117.976 31.04C120.352 31.04 121.54 30.452 121.54 29.276C121.54 28.724 121.216 28.328 120.568 28.088C119.92 27.848 118.924 27.644 117.58 27.476C115.996 27.236 114.688 26.96 113.656 26.648C112.624 26.336 111.724 25.784 110.956 24.992C110.212 24.2 109.84 23.072 109.84 21.608C109.84 20.384 110.188 19.304 110.884 18.368C111.604 17.408 112.636 16.664 113.98 16.136C115.348 15.608 116.956 15.344 118.804 15.344C120.172 15.344 121.528 15.5 122.872 15.812C124.24 16.1 125.368 16.508 126.256 17.036L124.384 21.032C122.68 20.072 120.82 19.592 118.804 19.592C117.604 19.592 116.704 19.76 116.104 20.096C115.504 20.432 115.204 20.864 115.204 21.392C115.204 21.992 115.528 22.412 116.176 22.652C116.824 22.892 117.856 23.12 119.272 23.336C120.856 23.6 122.152 23.888 123.16 24.2C124.168 24.488 125.044 25.028 125.788 25.82C126.532 26.612 126.904 27.716 126.904 29.132C126.904 30.332 126.544 31.4 125.824 32.336C125.104 33.272 124.048 34.004 122.656 34.532C121.288 35.036 119.656 35.288 117.76 35.288ZM142.033 34.064C141.481 34.472 140.797 34.784 139.981 35C139.189 35.192 138.361 35.288 137.497 35.288C135.169 35.288 133.381 34.7 132.133 33.524C130.885 32.348 130.261 30.62 130.261 28.34V11.348H135.877V16.064H140.665V20.384H135.877V28.268C135.877 29.084 136.081 29.72 136.489 30.176C136.897 30.608 137.485 30.824 138.253 30.824C139.117 30.824 139.885 30.584 140.557 30.104L142.033 34.064ZM150.569 18.188C151.241 17.252 152.141 16.544 153.269 16.064C154.421 15.584 155.741 15.344 157.229 15.344V20.528C156.605 20.48 156.185 20.456 155.969 20.456C154.361 20.456 153.101 20.912 152.189 21.824C151.277 22.712 150.821 24.056 150.821 25.856V35H145.205V15.632H150.569V18.188ZM169.609 35.288C167.569 35.288 165.733 34.868 164.101 34.028C162.493 33.164 161.233 31.976 160.321 30.464C159.409 28.952 158.953 27.236 158.953 25.316C158.953 23.396 159.409 21.68 160.321 20.168C161.233 18.656 162.493 17.48 164.101 16.64C165.733 15.776 167.569 15.344 169.609 15.344C171.649 15.344 173.473 15.776 175.081 16.64C176.689 17.48 177.949 18.656 178.861 20.168C179.773 21.68 180.229 23.396 180.229 25.316C180.229 27.236 179.773 28.952 178.861 30.464C177.949 31.976 176.689 33.164 175.081 34.028C173.473 34.868 171.649 35.288 169.609 35.288ZM169.609 30.68C171.049 30.68 172.225 30.2 173.137 29.24C174.073 28.256 174.541 26.948 174.541 25.316C174.541 23.684 174.073 22.388 173.137 21.428C172.225 20.444 171.049 19.952 169.609 19.952C168.169 19.952 166.981 20.444 166.045 21.428C165.109 22.388 164.641 23.684 164.641 25.316C164.641 26.948 165.109 28.256 166.045 29.24C166.981 30.2 168.169 30.68 169.609 30.68ZM189.455 16.064H194.423V20.384H189.599V35H183.983V15.2C183.983 12.992 184.631 11.24 185.927 9.944C187.247 8.648 189.095 8 191.471 8C192.311 8 193.103 8.096 193.847 8.288C194.615 8.456 195.251 8.708 195.755 9.044L194.279 13.112C193.631 12.656 192.875 12.428 192.011 12.428C190.307 12.428 189.455 13.364 189.455 15.236V16.064ZM200.111 15.632H205.727V35H200.111V15.632ZM202.919 12.932C201.887 12.932 201.047 12.632 200.399 12.032C199.751 11.432 199.427 10.688 199.427 9.8C199.427 8.912 199.751 8.168 200.399 7.568C201.047 6.968 201.887 6.668 202.919 6.668C203.951 6.668 204.791 6.956 205.439 7.532C206.087 8.108 206.411 8.828 206.411 9.692C206.411 10.628 206.087 11.408 205.439 12.032C204.791 12.632 203.951 12.932 202.919 12.932ZM222.611 34.064C222.059 34.472 221.375 34.784 220.559 35C219.767 35.192 218.939 35.288 218.075 35.288C215.747 35.288 213.959 34.7 212.711 33.524C211.463 32.348 210.839 30.62 210.839 28.34V11.348H216.455V16.064H221.243V20.384H216.455V28.268C216.455 29.084 216.659 29.72 217.067 30.176C217.475 30.608 218.063 30.824 218.831 30.824C219.695 30.824 220.463 30.584 221.135 30.104L222.611 34.064ZM101.492 65.896C102.932 66.352 104.06 67.12 104.876 68.2C105.692 69.256 106.1 70.564 106.1 72.124C106.1 74.332 105.236 76.036 103.508 77.236C101.804 78.412 99.308 79 96.02 79H82.988V53.8H95.3C98.372 53.8 100.724 54.388 102.356 55.564C104.012 56.74 104.84 58.336 104.84 60.352C104.84 61.576 104.54 62.668 103.94 63.628C103.364 64.588 102.548 65.344 101.492 65.896ZM88.784 58.192V64.132H94.58C96.02 64.132 97.112 63.88 97.856 63.376C98.6 62.872 98.972 62.128 98.972 61.144C98.972 60.16 98.6 59.428 97.856 58.948C97.112 58.444 96.02 58.192 94.58 58.192H88.784ZM95.588 74.608C97.124 74.608 98.276 74.356 99.044 73.852C99.836 73.348 100.232 72.568 100.232 71.512C100.232 69.424 98.684 68.38 95.588 68.38H88.784V74.608H95.588ZM119.335 79.288C117.295 79.288 115.459 78.868 113.827 78.028C112.219 77.164 110.959 75.976 110.047 74.464C109.135 72.952 108.679 71.236 108.679 69.316C108.679 67.396 109.135 65.68 110.047 64.168C110.959 62.656 112.219 61.48 113.827 60.64C115.459 59.776 117.295 59.344 119.335 59.344C121.375 59.344 123.199 59.776 124.807 60.64C126.415 61.48 127.675 62.656 128.587 64.168C129.499 65.68 129.955 67.396 129.955 69.316C129.955 71.236 129.499 72.952 128.587 74.464C127.675 75.976 126.415 77.164 124.807 78.028C123.199 78.868 121.375 79.288 119.335 79.288ZM119.335 74.68C120.775 74.68 121.951 74.2 122.863 73.24C123.799 72.256 124.267 70.948 124.267 69.316C124.267 67.684 123.799 66.388 122.863 65.428C121.951 64.444 120.775 63.952 119.335 63.952C117.895 63.952 116.707 64.444 115.771 65.428C114.835 66.388 114.367 67.684 114.367 69.316C114.367 70.948 114.835 72.256 115.771 73.24C116.707 74.2 117.895 74.68 119.335 74.68ZM142.925 79.288C140.885 79.288 139.049 78.868 137.417 78.028C135.809 77.164 134.549 75.976 133.637 74.464C132.725 72.952 132.269 71.236 132.269 69.316C132.269 67.396 132.725 65.68 133.637 64.168C134.549 62.656 135.809 61.48 137.417 60.64C139.049 59.776 140.885 59.344 142.925 59.344C144.965 59.344 146.789 59.776 148.397 60.64C150.005 61.48 151.265 62.656 152.177 64.168C153.089 65.68 153.545 67.396 153.545 69.316C153.545 71.236 153.089 72.952 152.177 74.464C151.265 75.976 150.005 77.164 148.397 78.028C146.789 78.868 144.965 79.288 142.925 79.288ZM142.925 74.68C144.365 74.68 145.541 74.2 146.453 73.24C147.389 72.256 147.857 70.948 147.857 69.316C147.857 67.684 147.389 66.388 146.453 65.428C145.541 64.444 144.365 63.952 142.925 63.952C141.485 63.952 140.297 64.444 139.361 65.428C138.425 66.388 137.957 67.684 137.957 69.316C137.957 70.948 138.425 72.256 139.361 73.24C140.297 74.2 141.485 74.68 142.925 74.68ZM165.615 71.404L162.915 74.068V79H157.299V52.288H162.915V67.408L171.123 59.632H177.819L169.755 67.84L178.539 79H171.735L165.615 71.404ZM186.948 79.288C185.34 79.288 183.768 79.096 182.232 78.712C180.696 78.304 179.472 77.8 178.56 77.2L180.432 73.168C181.296 73.72 182.34 74.176 183.564 74.536C184.788 74.872 185.988 75.04 187.164 75.04C189.54 75.04 190.728 74.452 190.728 73.276C190.728 72.724 190.404 72.328 189.756 72.088C189.108 71.848 188.112 71.644 186.768 71.476C185.184 71.236 183.876 70.96 182.844 70.648C181.812 70.336 180.912 69.784 180.144 68.992C179.4 68.2 179.028 67.072 179.028 65.608C179.028 64.384 179.376 63.304 180.072 62.368C180.792 61.408 181.824 60.664 183.168 60.136C184.536 59.608 186.144 59.344 187.992 59.344C189.36 59.344 190.716 59.5 192.06 59.812C193.428 60.1 194.556 60.508 195.444 61.036L193.572 65.032C191.868 64.072 190.008 63.592 187.992 63.592C186.792 63.592 185.892 63.76 185.292 64.096C184.692 64.432 184.392 64.864 184.392 65.392C184.392 65.992 184.716 66.412 185.364 66.652C186.012 66.892 187.044 67.12 188.46 67.336C190.044 67.6 191.34 67.888 192.348 68.2C193.356 68.488 194.232 69.028 194.976 69.82C195.72 70.612 196.092 71.716 196.092 73.132C196.092 74.332 195.732 75.4 195.012 76.336C194.292 77.272 193.236 78.004 191.844 78.532C190.476 79.036 188.844 79.288 186.948 79.288Z" fill="white"/>
<path d="M62.5 3.93488H7.5C3.5 3.93488 0 7.43488 0 11.4349V76.4349C0 80.4349 3.5 83.9349 7.5 83.9349H62.5C66.5 83.9349 70 80.4349 70 76.4349V11.4349C70 7.43488 66.5 3.93488 62.5 3.93488ZM20 71.9349C20 72.9349 19 73.9349 18 73.9349H12C11 73.9349 10 72.9349 10 71.9349V65.9349C10 64.9349 11 63.9349 12 63.9349H18C19 63.9349 20 64.9349 20 65.9349V71.9349V71.9349ZM20 51.9349C20 52.9349 19 53.9349 18 53.9349H12C11 53.9349 10 52.9349 10 51.9349V45.9349C10 44.9349 11 43.9349 12 43.9349H18C19 43.9349 20 44.9349 20 45.9349V51.9349V51.9349ZM40 71.9349C40 72.9349 39 73.9349 38 73.9349H32C31 73.9349 30 72.9349 30 71.9349V65.9349C30 64.9349 31 63.9349 32 63.9349H38C39 63.9349 40 64.9349 40 65.9349V71.9349ZM40 51.9349C40 52.9349 39 53.9349 38 53.9349H32C31 53.9349 30 52.9349 30 51.9349V45.9349C30 44.9349 31 43.9349 32 43.9349H38C39 43.9349 40 44.9349 40 45.9349V51.9349ZM60 71.9349C60 72.9349 59 73.9349 58 73.9349H52C51 73.9349 50 72.9349 50 71.9349V45.9349C50 44.9349 51 43.9349 52 43.9349H58C59 43.9349 60 44.9349 60 45.9349V71.9349V71.9349ZM60 31.9349C60 32.9349 59 33.9349 58 33.9349H12C11 33.9349 10 32.9349 10 31.9349V15.9349C10 14.9349 11 13.9349 12 13.9349H58C59 13.9349 60 14.9349 60 15.9349V31.9349Z" fill="white"/>
</svg>
